<svg xmlns="http://www.w3.org/2000/svg" viewBox="0 0 512 512" width="512" height="512">
	<style>
		tspan { white-space:pre }
		.shp0 { fill: #ffffff } 
	</style>
	<path id="Layer" class="shp0" d="M480,208c0,4.1 -2.6,7.9 -5.2,10.7l-2.9,2.5l-119.9,86l46.4,134.9c2.3,6.6 0.1,13.8 -5.5,18c-2.8,2.2 -5.5,3.9 -8.9,3.9c-3.3,0 -7.2,-1.6 -10,-3.6l-118,-84.1l-118,84.1c-2.8,1.9 -6.7,3.6 -10,3.6c-3.4,0 -6.1,-1.8 -9,-3.9c-5.5,-4.2 -7.8,-11.5 -5.5,-18l46.4,-134.9l-120.9,-85.2c-4.9,-3.9 -6.5,-7.8 -6.7,-11.3c-0.2,-0.8 -0.3,-1.8 -0.3,-2.7c0,-8.8 7.2,-16 16,-16h148.1l44.7,-133.4c2.2,-6.5 8.3,-10.6 15.2,-10.6c6.9,0 13,4.1 15.2,10.6l44.7,133.4h147.1c8.8,0 17,7.2 17,16zM415.4,227c3.2,-2.2 1.6,-7.2 -2.3,-7.2h-97.3c-12,0 -22.7,-7.7 -26.5,-19.1l-29.6,-88.2c-1.2,-3.6 -6.4,-3.6 -7.6,0l-29.6,88.2c-3.8,11.4 -14.5,19.1 -26.5,19.1h-98.7c-3.9,0 -5.5,5.1 -2.3,7.3l81,57.1c10.1,7.2 14.3,20.2 10.3,32l-30.1,87.7c-1.3,3.7 2.9,6.9 6.1,4.6l77.4,-55.1c4.8,-3.5 10.5,-5.2 16.2,-5.2c5.7,0 11.4,1.7 16.3,5.2l77.4,55.2c3.2,2.2 7.4,-0.9 6.1,-4.6l-30.1,-87.7c-4,-11.6 0.2,-24.6 10.2,-31.8z" />
</svg>