<svg xmlns="http://www.w3.org/2000/svg" viewBox="0 0 512 512" width="512" height="512">
	<style>
		tspan { white-space:pre }
		.shp0 { fill: #ffffff } 
	</style>
	<path id="Layer" class="shp0" d="M463,192h-147.1l-44.7,-133.4c-2.2,-6.5 -8.3,-10.6 -15.2,-10.6c-6.9,0 -13,4.1 -15.2,10.6l-44.7,133.4h-148.1c-8.8,0 -16,7.2 -16,16c0,0.9 0.1,1.9 0.3,2.7c0.2,3.5 1.8,7.4 6.7,11.3l120.9,85.2l-46.4,134.9c-2.3,6.5 0,13.8 5.5,18c2.9,2.1 5.6,3.9 9,3.9c3.3,0 7.2,-1.7 10,-3.6l118,-84.1l118,84.1c2.8,2 6.7,3.6 10,3.6c3.4,0 6.1,-1.7 8.9,-3.9c5.6,-4.2 7.8,-11.4 5.5,-18l-46.4,-134.9l119.9,-86l2.9,-2.5c2.6,-2.8 5.2,-6.6 5.2,-10.7c0,-8.8 -8.2,-16 -17,-16z" />
</svg>